<svg xmlns="http://www.w3.org/2000/svg" viewBox="0 0 800 500" role="img" aria-labelledby="title desc">
  <title id="title">Acolhimento comunitario</title>
  <desc id="desc">Ilustracao de pessoas em rede de apoio.</desc>
  <rect width="800" height="500" fill="#f0fdf4"/>
  <circle cx="170" cy="130" r="110" fill="#10b981" opacity=".18"/>
  <circle cx="620" cy="350" r="150" fill="#e94e77" opacity=".14"/>
  <rect x="150" y="135" width="500" height="265" rx="44" fill="#ffffff"/>
  <circle cx="300" cy="235" r="52" fill="#e94e77"/>
  <circle cx="500" cy="235" r="52" fill="#7c3aed"/>
  <circle cx="400" cy="298" r="58" fill="#10b981"/>
  <path d="M224 390c18-73 64-113 124-113M576 390c-18-73-64-113-124-113M300 360c20-50 55-77 100-77s80 27 100 77" fill="none" stroke="#334155" stroke-width="18" stroke-linecap="round"/>
  <path d="M344 258l112 70" stroke="#94a3b8" stroke-width="12" stroke-linecap="round"/>
  <path d="M456 258l-112 70" stroke="#94a3b8" stroke-width="12" stroke-linecap="round"/>
  <text x="400" y="456" text-anchor="middle" font-family="Inter, Arial, sans-serif" font-size="34" font-weight="800" fill="#334155">ONGs e acolhimento</text>
</svg>
