<svg xmlns="http://www.w3.org/2000/svg" viewBox="0 0 800 500" role="img" aria-labelledby="title desc">
  <title id="title">Noite e lazer LGBTQIA+</title>
  <desc id="desc">Ilustracao de pista, musica e luzes de festa.</desc>
  <rect width="800" height="500" fill="#111827"/>
  <circle cx="630" cy="92" r="94" fill="#e94e77" opacity=".62"/>
  <circle cx="160" cy="110" r="70" fill="#22d3ee" opacity=".5"/>
  <path d="M0 330c130-80 230-65 340 0s220 70 460-28v198H0z" fill="#312e81"/>
  <rect x="190" y="185" width="420" height="210" rx="34" fill="#ffffff" opacity=".1"/>
  <path d="M342 174v178c0 30-31 54-70 54s-70-24-70-54 31-54 70-54c12 0 24 2 34 6V174z" fill="#ffffff"/>
  <path d="M342 174l198-42v84l-198 42z" fill="#e94e77"/>
  <path d="M540 216v120c0 30-31 54-70 54s-70-24-70-54 31-54 70-54c12 0 24 2 34 6V224z" fill="#ffffff"/>
  <text x="400" y="454" text-anchor="middle" font-family="Inter, Arial, sans-serif" font-size="34" font-weight="800" fill="#ffffff">Noite, bares e clubes</text>
</svg>
