<svg xmlns="http://www.w3.org/2000/svg" viewBox="0 0 800 500" role="img" aria-labelledby="title desc">
  <title id="title">Turismo e pontos publicos</title>
  <desc id="desc">Ilustracao de praia, pier e rota turistica.</desc>
  <rect width="800" height="500" fill="#e0f2fe"/>
  <circle cx="650" cy="105" r="72" fill="#f59e0b"/>
  <path d="M0 260c120-50 210-40 315-15 145 35 280 45 485-25v280H0z" fill="#06b6d4"/>
  <path d="M0 345c170-35 300-14 435 20 125 31 235 22 365-18v153H0z" fill="#fef3c7"/>
  <path d="M210 345h330M270 345v-95M360 345v-135M450 345v-95" stroke="#92400e" stroke-width="18" stroke-linecap="round"/>
  <path d="M290 210c76-58 149-58 220 0" fill="none" stroke="#e94e77" stroke-width="18" stroke-linecap="round"/>
  <path d="M400 120v150" stroke="#334155" stroke-width="14" stroke-linecap="round"/>
  <text x="400" y="456" text-anchor="middle" font-family="Inter, Arial, sans-serif" font-size="34" font-weight="800" fill="#334155">Turismo e pontos publicos</text>
</svg>
