<svg xmlns="http://www.w3.org/2000/svg" viewBox="0 0 1200 750" role="img" aria-labelledby="title desc">
  <title id="title">Prevencao combinada pelo SUS</title>
  <desc id="desc">Ilustracao editorial de saude com capsulas, escudo e cruz medica.</desc>
  <defs>
    <linearGradient id="bg" x1="0" y1="0" x2="1" y2="1">
      <stop offset="0" stop-color="#fff1f5"/>
      <stop offset="0.55" stop-color="#ecfeff"/>
      <stop offset="1" stop-color="#f0fdf4"/>
    </linearGradient>
    <linearGradient id="pill" x1="0" y1="0" x2="1" y2="1">
      <stop offset="0" stop-color="#e94e77"/>
      <stop offset="1" stop-color="#10b981"/>
    </linearGradient>
  </defs>
  <rect width="1200" height="750" fill="url(#bg)"/>
  <circle cx="1010" cy="130" r="150" fill="#e94e77" opacity=".12"/>
  <circle cx="160" cy="640" r="190" fill="#10b981" opacity=".13"/>
  <rect x="180" y="170" width="840" height="420" rx="42" fill="#ffffff" opacity=".84"/>
  <path d="M600 160l230 84v148c0 142-96 238-230 293-134-55-230-151-230-293V244l230-84z" fill="#ffffff" stroke="#e94e77" stroke-width="18"/>
  <path d="M600 226l162 59v104c0 100-67 168-162 207-95-39-162-107-162-207V285l162-59z" fill="#fff1f5"/>
  <rect x="534" y="288" width="132" height="258" rx="66" transform="rotate(38 600 417)" fill="url(#pill)"/>
  <path d="M521 359l159 124" stroke="#ffffff" stroke-width="18" stroke-linecap="round"/>
  <rect x="580" y="330" width="40" height="166" rx="20" fill="#ffffff"/>
  <rect x="517" y="393" width="166" height="40" rx="20" fill="#ffffff"/>
  <text x="600" y="660" text-anchor="middle" font-family="Inter, Arial, sans-serif" font-size="42" font-weight="700" fill="#263238">PrEP, PEP e testagem</text>
</svg>
